<?xml version="1.0" encoding="UTF-8" standalone="no"?>
<svg
   xmlns:dc="http://purl.org/dc/elements/1.1/"
   xmlns:cc="http://creativecommons.org/ns#"
   xmlns:rdf="http://www.w3.org/1999/02/22-rdf-syntax-ns#"
   xmlns:svg="http://www.w3.org/2000/svg"
   xmlns="http://www.w3.org/2000/svg"
   xmlns:sodipodi="http://sodipodi.sourceforge.net/DTD/sodipodi-0.dtd"
   xmlns:inkscape="http://www.inkscape.org/namespaces/inkscape"
   width="288"
   height="288"
   version="1.1"
   id="svg8"
   sodipodi:docname="minutes.svg"
   inkscape:version="0.92.5 (2060ec1f9f, 2020-04-08)">
  <metadata
     id="metadata14">
    <rdf:RDF>
      <cc:Work
         rdf:about="">
        <dc:format>image/svg+xml</dc:format>
        <dc:type
           rdf:resource="http://purl.org/dc/dcmitype/StillImage" />
      </cc:Work>
    </rdf:RDF>
  </metadata>
  <defs
     id="defs12" />
  <sodipodi:namedview
     pagecolor="#ffffff"
     bordercolor="#666666"
     borderopacity="1"
     objecttolerance="10"
     gridtolerance="10"
     guidetolerance="10"
     inkscape:pageopacity="0"
     inkscape:pageshadow="2"
     inkscape:window-width="1920"
     inkscape:window-height="1005"
     id="namedview10"
     showgrid="false"
     inkscape:zoom="2.3177389"
     inkscape:cx="55.171982"
     inkscape:cy="147.06009"
     inkscape:window-x="0"
     inkscape:window-y="38"
     inkscape:window-maximized="1"
     inkscape:current-layer="svg6" />
  <path
     fill="#f59e0b"
     d="M 144,0 C 5,0 0,5 0,144 0,283 5,288 144,288 283,288 288,283 288,144 288,5 283,0 144,0 Z"
     transform="translate(30.01 30.01) scale(.7916)"
     id="path2" />
  <svg
     width="288"
     height="288"
     enable-background="new 0 0 294 294"
     transform="translate(77.011 77.011) scale(.4652)"
     viewBox="0 0 294 294"
     version="1.1"
     id="svg6">
    <path
       d="m 245.72533,84.944079 c 0,-5.192638 -4.51047,-9.40241 -10.07402,-9.40241 H 58.348683 c -5.563542,0 -10.074013,4.209772 -10.074013,9.40241 V 209.05592 c 0,5.19264 4.510471,9.40241 10.074013,9.40241 H 235.65131 c 5.56355,0 10.07402,-4.20977 10.07402,-9.40241 z M 131.55318,125.77185 c 0,-1.67989 1.07187,-3.23129 2.63066,-4.07123 1.55811,-0.83996 3.53463,-0.83996 5.09275,0 l 24.88012,13.39154 c 1.55812,0.83994 2.53261,2.39135 2.53261,4.07124 0,1.6799 -0.953,3.2313 -2.51179,4.07124 l -24.84856,13.39154 c -0.77905,0.41998 -1.64676,0.62996 -2.51649,0.62996 -0.86972,0 -1.85026,-0.20998 -2.62931,-0.62996 -1.55812,-0.83994 -2.62932,-2.39134 -2.62932,-4.07124 v -26.78309 z m 93.57616,74.50848 H 108.04715 v 0.62683 c 0,2.59695 -2.25457,4.7012 -5.03701,4.7012 -2.78244,0 -5.037005,-2.10425 -5.037005,-4.7012 v -0.62683 H 68.646339 c -2.782442,0 -5.037006,-2.10426 -5.037006,-4.7012 0,-2.59695 2.254564,-4.70121 5.037006,-4.70121 h 29.550439 c 0,-2.59694 2.254562,-4.70121 5.037002,-4.70121 2.78245,0 5.03701,2.10427 5.03701,4.70121 h 116.85855 c 2.78245,0 5.03701,2.10426 5.03701,4.70121 0,2.59694 -2.25456,4.7012 -5.03701,4.7012 z"
       class="color000 svgShape"
       id="path4"
       inkscape:connector-curvature="0"
       style="fill:#ffffff;stroke-width:0.64882809" />
  </svg>
</svg>
