<?xml version="1.0" encoding="UTF-8" standalone="no"?>
<svg
   xmlns:dc="http://purl.org/dc/elements/1.1/"
   xmlns:cc="http://creativecommons.org/ns#"
   xmlns:rdf="http://www.w3.org/1999/02/22-rdf-syntax-ns#"
   xmlns:svg="http://www.w3.org/2000/svg"
   xmlns="http://www.w3.org/2000/svg"
   xmlns:sodipodi="http://sodipodi.sourceforge.net/DTD/sodipodi-0.dtd"
   xmlns:inkscape="http://www.inkscape.org/namespaces/inkscape"
   width="288"
   height="288"
   version="1.1"
   id="svg10"
   sodipodi:docname="courses.svg"
   inkscape:version="0.92.5 (2060ec1f9f, 2020-04-08)">
  <metadata
     id="metadata16">
    <rdf:RDF>
      <cc:Work
         rdf:about="">
        <dc:format>image/svg+xml</dc:format>
        <dc:type
           rdf:resource="http://purl.org/dc/dcmitype/StillImage" />
      </cc:Work>
    </rdf:RDF>
  </metadata>
  <defs
     id="defs14" />
  <sodipodi:namedview
     pagecolor="#ffffff"
     bordercolor="#666666"
     borderopacity="1"
     objecttolerance="10"
     gridtolerance="10"
     guidetolerance="10"
     inkscape:pageopacity="0"
     inkscape:pageshadow="2"
     inkscape:window-width="1920"
     inkscape:window-height="1005"
     id="namedview12"
     showgrid="false"
     inkscape:zoom="1.6388889"
     inkscape:cx="18.247961"
     inkscape:cy="118.12126"
     inkscape:window-x="0"
     inkscape:window-y="38"
     inkscape:window-maximized="1"
     inkscape:current-layer="svg8" />
  <path
     fill="#f59e0b"
     d="M 144,0 C 5,0 0,5 0,144 0,283 5,288 144,288 283,288 288,283 288,144 288,5 283,0 144,0 Z"
     transform="translate(30.01 30.01) scale(.7916)"
     id="path2" />
  <svg
     width="288"
     height="288"
     enable-background="new 0 0 295 295"
     transform="translate(77.011 77.011) scale(.4652)"
     viewBox="0 0 295 295"
     version="1.1"
     id="svg8">
    <path
       d="m 229.17618,193.12815 h -0.7899 V 85.679774 c 0,-5.554789 -4.03958,-9.881163 -9.59436,-9.881163 H 77.195303 c -5.554784,0 -9.989011,4.326374 -9.989011,9.881163 V 193.12815 h -0.98782 c -3.272191,0 -6.123062,2.65296 -6.123062,5.92575 v 14.22176 c 0,3.27278 2.850871,5.92573 6.123062,5.92573 H 229.17618 c 3.27278,0 5.72841,-2.65295 5.72841,-5.92573 V 199.0539 c 0,-3.27279 -2.45563,-5.92575 -5.72841,-5.92575 z M 84.983497,93.575812 H 210.60907 V 191.35043 H 84.983497 Z M 186.81784,211.93406 c -3.06952,0 -5.55833,-2.48821 -5.55833,-5.55833 0,-3.06953 2.48821,-5.55834 5.55833,-5.55834 3.06953,0 5.55834,2.48821 5.55834,5.55834 -5.9e-4,3.06953 -2.48881,5.55833 -5.55834,5.55833 z m 20.68793,0 c -3.06953,0 -5.55834,-2.48821 -5.55834,-5.55833 0,-3.06953 2.48822,-5.55834 5.55834,-5.55834 3.06953,0 5.55834,2.48821 5.55834,5.55834 0,3.06953 -2.48822,5.55833 -5.55834,5.55833 z"
       class="color000 svgShape"
       id="path4"
       inkscape:connector-curvature="0"
       style="fill:#ffffff;stroke-width:0.59257352" />
    <path
       d="m 137.87512,157.64249 c 0.94042,0 1.90394,-0.30991 2.80051,-0.89774 l 27.79881,-18.20564 c 1.50157,-0.98249 2.36081,-2.47814 2.36081,-4.1018 0,-1.62424 -0.8622,-3.1199 -2.36318,-4.10238 l -27.80414,-18.20386 c -0.89657,-0.58664 -1.85298,-0.89657 -2.79221,-0.89657 -2.11608,0 -4.24461,1.61951 -4.24461,4.71571 v 36.9754 c 0,3.09738 2.12853,4.71688 4.24401,4.71688 z m 44.61546,8.34581 h -69.98116 c -4.90887,0 -8.8886,3.97973 -8.8886,8.8886 0,4.90888 3.97973,8.8886 8.8886,8.8886 h 69.98116 c 4.90887,0 8.8886,-3.97972 8.8886,-8.8886 0,-4.90887 -3.97973,-8.8886 -8.8886,-8.8886 z"
       class="color000 svgShape"
       id="path6"
       inkscape:connector-curvature="0"
       style="fill:#ffffff;stroke-width:0.59257352" />
  </svg>
</svg>
